<svg width="180" height="30" viewBox="0 0 180 30" fill="none" xmlns="http://www.w3.org/2000/svg">
<g clip-path="url(#clip0_1_63)">
<g clip-path="url(#clip1_1_63)">
<path d="M26.6155 9.19027L22.8405 12.9533C22.0905 21.6903 14.7155 28.4783 5.90247 28.4783C4.09047 28.4783 2.59047 28.1903 1.45247 27.6283C0.54047 27.1653 0.16547 26.6783 0.0654697 26.5283C-0.10253 26.2733 -0.14453 25.9563 -0.0505305 25.6673C0.0444695 25.3773 0.26647 25.1463 0.55247 25.0403C0.57747 25.0283 3.52747 23.9033 5.44047 21.7403C4.25347 20.8963 3.21147 19.8663 2.35247 18.6903C0.640469 16.3653 -1.17253 12.3283 -0.0845304 6.30327C-0.0155304 5.93827 0.248469 5.64127 0.602469 5.52827C0.957469 5.41227 1.34847 5.50327 1.61547 5.76527C1.65247 5.81527 5.81547 9.91527 10.9025 11.2403V10.4783C10.9125 8.87727 11.5585 7.34527 12.6975 6.22027C13.8365 5.09527 15.3765 4.46827 16.9775 4.47827C19.0945 4.50827 21.0395 5.64727 22.1025 7.47827H25.9025C26.3065 7.47727 26.6715 7.71827 26.8275 8.09027C26.9745 8.46727 26.8915 8.89527 26.6155 9.19027Z" fill="#A0C4FF"/>
</g>
<g clip-path="url(#clip2_1_63)">
<path d="M59.9025 15.4783C59.9025 13.2693 61.6935 11.4783 63.9025 11.4783C66.1115 11.4783 67.9025 13.2693 67.9025 15.4783C67.9025 17.6873 66.1115 19.4783 63.9025 19.4783C61.6935 19.4783 59.9025 17.6873 59.9025 15.4783Z" fill="#A0C4FF"/>
<path d="M69.4025 2.97827H58.4025C54.5365 2.97827 51.4025 6.11227 51.4025 9.97827V20.9783C51.4025 24.8443 54.5365 27.9783 58.4025 27.9783H69.4025C73.2685 27.9783 76.4025 24.8443 76.4025 20.9783V9.97827C76.4025 6.11227 73.2685 2.97827 69.4025 2.97827ZM63.9025 21.4783C60.5885 21.4783 57.9025 18.7923 57.9025 15.4783C57.9025 12.1643 60.5885 9.47827 63.9025 9.47827C67.2165 9.47827 69.9025 12.1643 69.9025 15.4783C69.9025 18.7923 67.2165 21.4783 63.9025 21.4783ZM70.4025 10.4783C69.5745 10.4783 68.9025 9.80627 68.9025 8.97827C68.9025 8.15027 69.5745 7.47827 70.4025 7.47827C71.2305 7.47827 71.9025 8.15027 71.9025 8.97827C71.9025 9.80627 71.2305 10.4783 70.4025 10.4783Z" fill="#A0C4FF"/>
</g>
<path d="M128.902 15.4783C128.894 22.0533 123.985 27.5903 117.458 28.3853C117.316 28.4023 117.174 28.3563 117.068 28.2613C116.961 28.1653 116.901 28.0283 116.902 27.8853V18.4783H119.902C120.179 18.4793 120.444 18.3643 120.634 18.1623C120.823 17.9603 120.92 17.6883 120.902 17.4123C120.856 16.8783 120.406 16.4713 119.871 16.4783H116.902V13.4783C116.902 12.3733 117.797 11.4783 118.902 11.4783H120.902C121.179 11.4793 121.444 11.3643 121.634 11.1623C121.823 10.9603 121.92 10.6883 121.902 10.4123C121.856 9.87727 121.405 9.46927 120.868 9.47827H118.902C116.693 9.47827 114.902 11.2693 114.902 13.4783V16.4783H111.902C111.625 16.4773 111.36 16.5923 111.17 16.7943C110.981 16.9963 110.884 17.2683 110.902 17.5443C110.948 18.0793 111.399 18.4873 111.936 18.4783H114.902V27.8883C114.903 28.0313 114.843 28.1673 114.737 28.2633C114.631 28.3583 114.489 28.4043 114.347 28.3883C107.633 27.5703 102.664 21.7483 102.911 14.9893C103.161 8.23927 108.628 2.75227 115.383 2.48927C118.917 2.35227 122.354 3.65927 124.904 6.10927C127.454 8.55927 128.898 11.9423 128.902 15.4783Z" fill="#A0C4FF"/>
<path d="M177.902 3.47827H157.902C156.797 3.47827 155.902 4.37327 155.902 5.47827V23.4783C155.902 24.5833 156.797 25.4783 157.902 25.4783H159.902V29.4783C159.902 29.8663 160.126 30.2193 160.478 30.3843C160.829 30.5493 161.244 30.4953 161.542 30.2473L167.265 25.4783H172.54C173.008 25.4783 173.461 25.3143 173.821 25.0143L179.182 20.5453C179.639 20.1663 179.903 19.6033 179.902 19.0093V5.47827C179.902 4.37327 179.007 3.47827 177.902 3.47827ZM167.902 16.4783C167.902 17.0303 167.454 17.4783 166.902 17.4783C166.35 17.4783 165.902 17.0303 165.902 16.4783V10.4783C165.902 9.92627 166.35 9.47827 166.902 9.47827C167.454 9.47827 167.902 9.92627 167.902 10.4783V16.4783ZM173.902 16.4783C173.902 17.0303 173.454 17.4783 172.902 17.4783C172.35 17.4783 171.902 17.0303 171.902 16.4783V10.4783C171.902 9.92627 172.35 9.47827 172.902 9.47827C173.454 9.47827 173.902 9.92627 173.902 10.4783V16.4783Z" fill="#A0C4FF"/>
</g>
<defs>
<clipPath id="clip0_1_63">
<rect width="178.457" height="29.2174" fill="white" transform="translate(0.902466 0.478271)"/>
</clipPath>
<clipPath id="clip1_1_63">
<rect width="32" height="32" fill="white" transform="translate(-4.09753 -0.521729)"/>
</clipPath>
<clipPath id="clip2_1_63">
<rect width="32" height="32" fill="white" transform="translate(47.9025 -0.521729)"/>
</clipPath>
</defs>
</svg>
