<svg width="463" height="21" viewBox="0 0 463 21" fill="none" xmlns="http://www.w3.org/2000/svg">
<path fill-rule="evenodd" clip-rule="evenodd" d="M384.986 6.56539C384.918 5.87789 384.625 5.3438 384.108 4.96311C383.591 4.58243 382.889 4.39209 382.003 4.39209C381.401 4.39209 380.892 4.47732 380.477 4.64777C380.062 4.81255 379.744 5.04266 379.523 5.33811C379.307 5.63357 379.199 5.9688 379.199 6.3438C379.188 6.6563 379.253 6.92902 379.395 7.16198C379.543 7.39493 379.744 7.59664 380 7.76709C380.256 7.93186 380.551 8.07675 380.886 8.20175C381.222 8.32107 381.58 8.42334 381.96 8.50857L383.528 8.88357C384.29 9.05402 384.989 9.2813 385.625 9.56539C386.261 9.84948 386.812 10.1989 387.278 10.6137C387.744 11.0285 388.105 11.5171 388.361 12.0796C388.622 12.6421 388.756 13.287 388.761 14.0142C388.756 15.0824 388.483 16.0086 387.943 16.7927C387.409 17.5711 386.636 18.1762 385.625 18.608C384.619 19.0341 383.406 19.2472 381.986 19.2472C380.577 19.2472 379.349 19.0313 378.304 18.5995C377.264 18.1677 376.452 17.5285 375.866 16.6819C375.287 15.8296 374.983 14.7756 374.955 13.5199H378.526C378.565 14.1052 378.733 14.5938 379.028 14.9858C379.33 15.3722 379.73 15.6648 380.23 15.8637C380.736 16.0569 381.307 16.1535 381.943 16.1535C382.568 16.1535 383.111 16.0625 383.571 15.8807C384.037 15.6989 384.398 15.4461 384.653 15.1222C384.909 14.7983 385.037 14.4262 385.037 14.0057C385.037 13.6137 384.92 13.2841 384.688 13.0171C384.46 12.75 384.125 12.5228 383.682 12.3353C383.244 12.1478 382.707 11.9773 382.071 11.8239L380.17 11.3466C378.699 10.9887 377.537 10.429 376.685 9.66766C375.832 8.9063 375.409 7.88073 375.415 6.59095C375.409 5.53414 375.69 4.61084 376.259 3.82107C376.832 3.0313 377.619 2.41482 378.619 1.97164C379.619 1.52845 380.756 1.30686 382.028 1.30686C383.324 1.30686 384.455 1.52845 385.42 1.97164C386.392 2.41482 387.148 3.0313 387.688 3.82107C388.227 4.61084 388.506 5.52561 388.523 6.56539H384.986ZM397.141 19.2557C395.795 19.2557 394.636 18.983 393.664 18.4375C392.698 17.8864 391.954 17.108 391.431 16.1023C390.908 15.091 390.647 13.8949 390.647 12.5142C390.647 11.1677 390.908 9.98584 391.431 8.9688C391.954 7.95175 392.69 7.15914 393.638 6.59095C394.593 6.02277 395.712 5.73868 396.996 5.73868C397.86 5.73868 398.664 5.87789 399.408 6.1563C400.158 6.42902 400.812 6.84095 401.369 7.39209C401.931 7.94323 402.369 8.63641 402.681 9.47164C402.994 10.3012 403.15 11.2728 403.15 12.3864V13.3836H394.235V13.3921C394.235 14.0398 394.354 14.5995 394.593 15.0711C394.837 15.5427 395.181 15.9063 395.624 16.162C396.067 16.4177 396.593 16.5455 397.201 16.5455C397.604 16.5455 397.974 16.4887 398.309 16.375C398.644 16.2614 398.931 16.091 399.17 15.8637C399.408 15.6364 399.59 15.358 399.715 15.0285L403.073 15.25C402.903 16.0569 402.553 16.7614 402.025 17.3637C401.502 17.9603 400.826 18.4262 399.996 18.7614C399.173 19.091 398.221 19.2557 397.141 19.2557ZM394.602 9.84664C394.381 10.2345 394.26 10.6635 394.238 11.1336H399.732C399.732 10.6108 399.619 10.1478 399.391 9.74436C399.164 9.34095 398.849 9.02561 398.445 8.79834C398.048 8.56539 397.585 8.44891 397.056 8.44891C396.505 8.44891 396.016 8.57675 395.59 8.83243C395.17 9.08243 394.84 9.4205 394.602 9.84664ZM405.519 5.90914H409.039V8.19323H409.175C409.414 7.38073 409.815 6.76709 410.377 6.35232C410.94 5.93186 411.587 5.72164 412.32 5.72164C412.502 5.72164 412.698 5.733 412.908 5.75573C413.119 5.77845 413.303 5.8097 413.462 5.84948V9.07107C413.292 9.01993 413.056 8.97448 412.755 8.9347C412.454 8.89493 412.178 8.87505 411.928 8.87505C411.394 8.87505 410.917 8.99152 410.496 9.22448C410.082 9.45175 409.752 9.76993 409.508 10.179C409.269 10.5881 409.15 11.0597 409.15 11.5938V19H405.519V5.90914ZM423.366 19H419.275L414.698 5.90914H418.533L421.252 15.2756H421.388L424.099 5.90914H427.942L423.366 19ZM429.8 5.90914H433.431V19H429.8V5.90914ZM431.624 4.22164C431.085 4.22164 430.621 4.04266 430.235 3.6847C429.854 3.32107 429.664 2.88641 429.664 2.38073C429.664 1.88073 429.854 1.45175 430.235 1.0938C430.621 0.730159 431.085 0.54834 431.624 0.54834C432.164 0.54834 432.624 0.730159 433.005 1.0938C433.391 1.45175 433.585 1.88073 433.585 2.38073C433.585 2.88641 433.391 3.32107 433.005 3.6847C432.624 4.04266 432.164 4.22164 431.624 4.22164ZM442.254 19.2557C440.913 19.2557 439.76 18.9716 438.794 18.4035C437.834 17.8296 437.095 17.0341 436.578 16.0171C436.067 15 435.811 13.8296 435.811 12.5057C435.811 11.1648 436.07 9.98868 436.587 8.97732C437.109 7.96027 437.851 7.16766 438.811 6.59948C439.771 6.02561 440.913 5.73868 442.237 5.73868C443.379 5.73868 444.379 5.94607 445.237 6.36084C446.095 6.77561 446.774 7.358 447.274 8.108C447.774 8.858 448.05 9.73868 448.101 10.75H444.675C444.578 10.0966 444.322 9.57107 443.908 9.17334C443.499 8.76993 442.962 8.56823 442.297 8.56823C441.734 8.56823 441.243 8.72164 440.822 9.02845C440.408 9.32959 440.084 9.76993 439.851 10.3495C439.618 10.929 439.501 11.6307 439.501 12.4546C439.501 13.2898 439.615 14 439.842 14.5853C440.075 15.1705 440.402 15.6165 440.822 15.9233C441.243 16.2302 441.734 16.3836 442.297 16.3836C442.712 16.3836 443.084 16.2983 443.413 16.1279C443.749 15.9574 444.024 15.7103 444.24 15.3864C444.462 15.0569 444.607 14.662 444.675 14.2017H448.101C448.044 15.2017 447.771 16.0824 447.283 16.8438C446.8 17.5995 446.132 18.1904 445.28 18.6165C444.428 19.0427 443.419 19.2557 442.254 19.2557ZM456.391 19.2557C455.045 19.2557 453.886 18.983 452.914 18.4375C451.948 17.8864 451.204 17.108 450.681 16.1023C450.158 15.091 449.897 13.8949 449.897 12.5142C449.897 11.1677 450.158 9.98584 450.681 8.9688C451.204 7.95175 451.94 7.15914 452.888 6.59095C453.843 6.02277 454.962 5.73868 456.246 5.73868C457.11 5.73868 457.914 5.87789 458.658 6.1563C459.408 6.42902 460.062 6.84095 460.619 7.39209C461.181 7.94323 461.619 8.63641 461.931 9.47164C462.244 10.3012 462.4 11.2728 462.4 12.3864V13.3836H453.485V13.3921C453.485 14.0398 453.604 14.5995 453.843 15.0711C454.087 15.5427 454.431 15.9063 454.874 16.162C455.317 16.4177 455.843 16.5455 456.451 16.5455C456.854 16.5455 457.224 16.4887 457.559 16.375C457.894 16.2614 458.181 16.091 458.42 15.8637C458.658 15.6364 458.84 15.358 458.965 15.0285L462.323 15.25C462.153 16.0569 461.803 16.7614 461.275 17.3637C460.752 17.9603 460.076 18.4262 459.246 18.7614C458.423 19.091 457.471 19.2557 456.391 19.2557ZM453.852 9.84664C453.631 10.2345 453.51 10.6635 453.488 11.1336H458.982C458.982 10.6108 458.869 10.1478 458.641 9.74436C458.414 9.34095 458.099 9.02561 457.695 8.79834C457.298 8.56539 456.835 8.44891 456.306 8.44891C455.755 8.44891 455.266 8.57675 454.84 8.83243C454.42 9.08243 454.09 9.4205 453.852 9.84664ZM250.185 7.6563H253.918C253.798 6.64493 253.526 5.7472 253.099 4.96311C252.679 4.17902 252.134 3.51709 251.463 2.97732C250.793 2.43186 250.023 2.01709 249.153 1.733C248.29 1.44891 247.352 1.30686 246.341 1.30686C244.807 1.30686 243.426 1.65914 242.199 2.36368C240.972 3.06255 240 4.07959 239.284 5.41482C238.568 6.75005 238.21 8.36936 238.21 10.2728C238.21 12.1705 238.562 13.787 239.267 15.1222C239.977 16.4574 240.943 17.4773 242.165 18.1819C243.392 18.8864 244.784 19.2387 246.341 19.2387C247.46 19.2387 248.463 19.0711 249.349 18.7358C250.241 18.3949 251.009 17.9347 251.651 17.3552C252.298 16.7699 252.812 16.108 253.193 15.3694C253.58 14.625 253.821 13.8523 253.918 13.0512L250.185 13.0341C250.099 13.5 249.946 13.9148 249.724 14.2785C249.509 14.6421 249.236 14.9517 248.906 15.2074C248.577 15.4574 248.199 15.6478 247.773 15.7785C247.352 15.9091 246.895 15.9745 246.401 15.9745C245.52 15.9745 244.744 15.7586 244.074 15.3267C243.403 14.8949 242.881 14.2557 242.506 13.4091C242.136 12.5625 241.952 11.5171 241.952 10.2728C241.952 9.06255 242.136 8.03414 242.506 7.18755C242.875 6.33527 243.395 5.68755 244.065 5.24436C244.736 4.7955 245.523 4.57107 246.426 4.57107C246.926 4.57107 247.389 4.64209 247.815 4.78414C248.247 4.92618 248.628 5.13073 248.957 5.39777C249.287 5.66482 249.557 5.98868 249.767 6.36936C249.977 6.74436 250.116 7.17334 250.185 7.6563ZM258.976 18.412C259.942 18.9745 261.087 19.2557 262.411 19.2557C263.734 19.2557 264.876 18.9745 265.837 18.412C266.803 17.8438 267.547 17.054 268.07 16.0427C268.592 15.0256 268.854 13.8466 268.854 12.5057C268.854 11.1535 268.592 9.97164 268.07 8.96027C267.547 7.94323 266.803 7.15345 265.837 6.59095C264.876 6.02277 263.734 5.73868 262.411 5.73868C261.087 5.73868 259.942 6.02277 258.976 6.59095C258.016 7.15345 257.274 7.94323 256.751 8.96027C256.229 9.97164 255.967 11.1535 255.967 12.5057C255.967 13.8466 256.229 15.0256 256.751 16.0427C257.274 17.054 258.016 17.8438 258.976 18.412ZM263.936 15.9319C263.533 16.2728 263.03 16.4432 262.428 16.4432C261.82 16.4432 261.308 16.2728 260.893 15.9319C260.484 15.5853 260.175 15.1137 259.964 14.5171C259.76 13.9205 259.658 13.2415 259.658 12.4802C259.658 11.7188 259.76 11.0398 259.964 10.4432C260.175 9.84664 260.484 9.37505 260.893 9.02845C261.308 8.68186 261.82 8.50857 262.428 8.50857C263.03 8.50857 263.533 8.68186 263.936 9.02845C264.339 9.37505 264.643 9.84664 264.848 10.4432C265.058 11.0398 265.163 11.7188 265.163 12.4802C265.163 13.2415 265.058 13.9205 264.848 14.5171C264.643 15.1137 264.339 15.5853 263.936 15.9319ZM274.845 19V11.4319C274.851 10.8694 274.956 10.3892 275.161 9.99152C275.371 9.58811 275.661 9.2813 276.03 9.07107C276.405 8.86084 276.837 8.75573 277.325 8.75573C278.053 8.75573 278.624 8.983 279.038 9.43755C279.453 9.88641 279.658 10.5114 279.652 11.3125V19H283.283V10.6648C283.283 9.64777 283.095 8.77277 282.72 8.03982C282.345 7.30118 281.82 6.733 281.143 6.33527C280.467 5.93755 279.675 5.73868 278.766 5.73868C277.794 5.73868 276.967 5.96311 276.286 6.41198C275.604 6.85516 275.118 7.45743 274.828 8.2188H274.675V5.90914H271.214V19H274.845ZM293.107 8.63641V5.90914H290.644V2.77277H287.013V5.90914H285.224V8.63641H287.013V15.4546C287.008 16.3125 287.187 17.0228 287.55 17.5853C287.914 18.1478 288.423 18.5625 289.076 18.8296C289.735 19.0966 290.502 19.2131 291.377 19.179C291.849 19.162 292.249 19.1137 292.579 19.0341C292.908 18.9603 293.164 18.8949 293.346 18.8381L292.775 16.1364C292.755 16.1401 292.733 16.1443 292.71 16.1488L292.651 16.1601C292.576 16.1746 292.487 16.1923 292.383 16.2131C292.212 16.2415 292.042 16.2557 291.871 16.2557C291.627 16.2557 291.411 16.2188 291.224 16.1449C291.042 16.0711 290.9 15.9432 290.798 15.7614C290.695 15.5739 290.644 15.3125 290.644 14.9773V8.63641H293.107ZM296.972 18.8125C297.626 19.1023 298.37 19.2472 299.205 19.2472C299.853 19.2472 300.424 19.162 300.918 18.9915C301.413 18.8154 301.836 18.5739 302.188 18.2671C302.54 17.9546 302.822 17.5938 303.032 17.1847H303.134V19H306.577V10.1705C306.577 9.39209 306.427 8.72448 306.126 8.16766C305.825 7.60516 305.413 7.14493 304.89 6.78698C304.373 6.42902 303.779 6.16482 303.109 5.99436C302.444 5.82391 301.748 5.73868 301.021 5.73868C299.975 5.73868 299.055 5.89777 298.259 6.21595C297.469 6.52845 296.825 6.97732 296.325 7.56255C295.825 8.14209 295.489 8.82959 295.319 9.62505L298.677 9.89777C298.802 9.46595 299.058 9.108 299.444 8.82391C299.83 8.53414 300.35 8.38925 301.004 8.38925C301.623 8.38925 302.1 8.53698 302.435 8.83243C302.776 9.12789 302.947 9.5455 302.947 10.0853V10.1364C302.947 10.4148 302.842 10.625 302.631 10.7671C302.421 10.9091 302.083 11.0171 301.617 11.091C301.151 11.1591 300.538 11.233 299.776 11.3125C299.129 11.375 298.509 11.483 297.918 11.6364C297.333 11.7898 296.81 12.0171 296.35 12.3182C295.89 12.6194 295.526 13.0171 295.259 13.5114C294.992 14.0057 294.859 14.6165 294.859 15.3438C294.859 16.2074 295.046 16.929 295.421 17.5086C295.802 18.0824 296.319 18.5171 296.972 18.8125ZM301.66 16.4262C301.251 16.6364 300.779 16.7415 300.245 16.7415C299.688 16.7415 299.228 16.6137 298.864 16.358C298.506 16.0966 298.327 15.7188 298.327 15.2245C298.327 14.8836 298.415 14.5995 298.592 14.3722C298.768 14.1392 299.015 13.9546 299.333 13.8182C299.651 13.6819 300.023 13.5824 300.45 13.5199C300.648 13.4915 300.87 13.4603 301.114 13.4262C301.359 13.3864 301.603 13.3438 301.847 13.2983C302.092 13.2472 302.31 13.1932 302.504 13.1364C302.702 13.0739 302.859 13.0057 302.972 12.9319V14.3211C302.972 14.7813 302.856 15.1932 302.623 15.5569C302.39 15.9205 302.069 16.2103 301.66 16.4262ZM311.849 18.4035C312.815 18.9716 313.968 19.2557 315.309 19.2557C316.474 19.2557 317.482 19.0427 318.335 18.6165C319.187 18.1904 319.854 17.5995 320.337 16.8438C320.826 16.0824 321.099 15.2017 321.156 14.2017H317.729C317.661 14.662 317.516 15.0569 317.295 15.3864C317.079 15.7103 316.803 15.9574 316.468 16.1279C316.138 16.2983 315.766 16.3836 315.352 16.3836C314.789 16.3836 314.298 16.2302 313.877 15.9233C313.457 15.6165 313.13 15.1705 312.897 14.5853C312.67 14 312.556 13.2898 312.556 12.4546C312.556 11.6307 312.673 10.929 312.906 10.3495C313.138 9.76993 313.462 9.32959 313.877 9.02845C314.298 8.72164 314.789 8.56823 315.352 8.56823C316.016 8.56823 316.553 8.76993 316.962 9.17334C317.377 9.57107 317.633 10.0966 317.729 10.75H321.156C321.104 9.73868 320.829 8.858 320.329 8.108C319.829 7.358 319.15 6.77561 318.292 6.36084C317.434 5.94607 316.434 5.73868 315.292 5.73868C313.968 5.73868 312.826 6.02561 311.866 6.59948C310.906 7.16766 310.164 7.96027 309.641 8.97732C309.124 9.98868 308.866 11.1648 308.866 12.5057C308.866 13.8296 309.121 15 309.633 16.0171C310.15 17.0341 310.888 17.8296 311.849 18.4035ZM330.443 8.63641V5.90914H327.98V2.77277H324.349V5.90914H322.56V8.63641H324.349V15.4546C324.344 16.3125 324.523 17.0228 324.886 17.5853C325.25 18.1478 325.759 18.5625 326.412 18.8296C327.071 19.0966 327.838 19.2131 328.713 19.179C329.185 19.162 329.585 19.1137 329.915 19.0341C330.244 18.9603 330.5 18.8949 330.682 18.8381L330.111 16.1364C330.02 16.1535 329.889 16.179 329.719 16.2131C329.548 16.2415 329.378 16.2557 329.207 16.2557C328.963 16.2557 328.747 16.2188 328.56 16.1449C328.378 16.0711 328.236 15.9432 328.134 15.7614C328.031 15.5739 327.98 15.3125 327.98 14.9773V8.63641H330.443ZM119.571 20H123.526L124.82 16.0199H131.122L132.415 20H136.369L130.352 2.5455H125.597L119.571 20ZM128.043 6.53414L130.187 13.1392H125.757L127.906 6.53414H128.043ZM138.47 2.5455V20H142.05V17.9035H142.212C142.376 18.2671 142.615 18.6279 142.928 18.9858C143.24 19.3381 143.641 19.6307 144.129 19.8637C144.624 20.0966 145.223 20.2131 145.928 20.2131C146.922 20.2131 147.82 19.9574 148.621 19.4461C149.428 18.929 150.064 18.1705 150.53 17.1705C151.001 16.1648 151.237 14.9319 151.237 13.4716C151.237 11.9716 150.996 10.7245 150.513 9.73016C150.03 8.73016 149.385 7.983 148.578 7.48868C147.771 6.98868 146.891 6.73868 145.936 6.73868C145.203 6.73868 144.589 6.86368 144.095 7.11368C143.607 7.358 143.209 7.66482 142.902 8.03414C142.601 8.39777 142.371 8.75573 142.212 9.108H142.101V2.5455H138.47ZM142.348 15.4915C142.132 14.912 142.024 14.233 142.024 13.4546C142.024 12.6762 142.132 12 142.348 11.4262C142.564 10.8523 142.874 10.4091 143.277 10.0966C143.686 9.78414 144.186 9.62789 144.777 9.62789C145.374 9.62789 145.876 9.78982 146.286 10.1137C146.695 10.4375 147.004 10.8864 147.214 11.4603C147.425 12.0341 147.53 12.6989 147.53 13.4546C147.53 14.216 147.422 14.8892 147.206 15.4745C146.996 16.054 146.686 16.5086 146.277 16.8381C145.868 17.162 145.368 17.3239 144.777 17.3239C144.192 17.3239 143.695 17.1648 143.286 16.8466C142.876 16.5228 142.564 16.0711 142.348 15.4915ZM156.14 19.412C157.106 19.9745 158.251 20.2557 159.575 20.2557C160.898 20.2557 162.04 19.9745 163.001 19.412C163.967 18.8438 164.711 18.054 165.234 17.0427C165.756 16.0256 166.018 14.8466 166.018 13.5057C166.018 12.1535 165.756 10.9716 165.234 9.96027C164.711 8.94323 163.967 8.15345 163.001 7.59095C162.04 7.02277 160.898 6.73868 159.575 6.73868C158.251 6.73868 157.106 7.02277 156.14 7.59095C155.18 8.15345 154.438 8.94323 153.915 9.96027C153.393 10.9716 153.131 12.1535 153.131 13.5057C153.131 14.8466 153.393 16.0256 153.915 17.0427C154.438 18.054 155.18 18.8438 156.14 19.412ZM161.1 16.9319C160.697 17.2728 160.194 17.4432 159.592 17.4432C158.984 17.4432 158.472 17.2728 158.058 16.9319C157.648 16.5853 157.339 16.1137 157.129 15.5171C156.924 14.9205 156.822 14.2415 156.822 13.4802C156.822 12.7188 156.924 12.0398 157.129 11.4432C157.339 10.8466 157.648 10.375 158.058 10.0285C158.472 9.68186 158.984 9.50857 159.592 9.50857C160.194 9.50857 160.697 9.68186 161.1 10.0285C161.504 10.375 161.808 10.8466 162.012 11.4432C162.222 12.0398 162.327 12.7188 162.327 13.4802C162.327 14.2415 162.222 14.9205 162.012 15.5171C161.808 16.1137 161.504 16.5853 161.1 16.9319ZM176.773 6.90914V14.4262C176.779 15.0114 176.663 15.5029 176.424 15.9006C176.191 16.2983 175.884 16.5995 175.504 16.804C175.123 17.0029 174.714 17.1023 174.276 17.1023C173.589 17.1023 173.04 16.8779 172.631 16.429C172.222 15.9802 172.015 15.3694 172.009 14.5966V6.90914H168.379V15.2444C168.384 16.2671 168.572 17.1449 168.941 17.8779C169.316 18.6108 169.836 19.1762 170.501 19.5739C171.165 19.9716 171.935 20.1705 172.81 20.1705C173.793 20.1705 174.626 19.9375 175.308 19.4716C175.995 19.0057 176.487 18.3892 176.782 17.6222H176.918V20H180.404V6.90914H176.773ZM190.271 9.63641V6.90914H187.808V3.77277H184.178V6.90914H182.388V9.63641H184.178V16.4546C184.172 17.3125 184.351 18.0228 184.714 18.5853C185.078 19.1478 185.587 19.5625 186.24 19.8296C186.899 20.0966 187.666 20.2131 188.541 20.179C189.013 20.162 189.413 20.1137 189.743 20.0341C190.072 19.9603 190.328 19.8949 190.51 19.8381L189.939 17.1364C189.848 17.1535 189.717 17.179 189.547 17.2131C189.376 17.2415 189.206 17.2557 189.036 17.2557C188.791 17.2557 188.575 17.2188 188.388 17.1449C188.206 17.0711 188.064 16.9432 187.962 16.7614C187.859 16.5739 187.808 16.3125 187.808 15.9773V9.63641H190.271ZM0.517045 1.5455V19H4.20739V11.7898H11.6989V19H15.3807V1.5455H11.6989V8.7472H4.20739V1.5455H0.517045ZM20.8352 18.412C21.8011 18.9745 22.946 19.2557 24.2699 19.2557C25.5938 19.2557 26.7358 18.9745 27.696 18.412C28.6619 17.8438 29.4062 17.054 29.929 16.0427C30.4517 15.0256 30.7131 13.8466 30.7131 12.5057C30.7131 11.1535 30.4517 9.97164 29.929 8.96027C29.4062 7.94323 28.6619 7.15345 27.696 6.59095C26.7358 6.02277 25.5938 5.73868 24.2699 5.73868C22.946 5.73868 21.8011 6.02277 20.8352 6.59095C19.875 7.15345 19.1335 7.94323 18.6108 8.96027C18.0881 9.97164 17.8267 11.1535 17.8267 12.5057C17.8267 13.8466 18.0881 15.0256 18.6108 16.0427C19.1335 17.054 19.875 17.8438 20.8352 18.412ZM25.7955 15.9319C25.392 16.2728 24.8892 16.4432 24.2869 16.4432C23.679 16.4432 23.1676 16.2728 22.7528 15.9319C22.3438 15.5853 22.0341 15.1137 21.8239 14.5171C21.6193 13.9205 21.517 13.2415 21.517 12.4802C21.517 11.7188 21.6193 11.0398 21.8239 10.4432C22.0341 9.84664 22.3438 9.37505 22.7528 9.02845C23.1676 8.68186 23.679 8.50857 24.2869 8.50857C24.8892 8.50857 25.392 8.68186 25.7955 9.02845C26.1989 9.37505 26.5028 9.84664 26.7074 10.4432C26.9176 11.0398 27.0227 11.7188 27.0227 12.4802C27.0227 13.2415 26.9176 13.9205 26.7074 14.5171C26.5028 15.1137 26.1989 15.5853 25.7955 15.9319ZM33.0739 5.90914V19H36.7045V11.1421C36.7045 10.6591 36.7983 10.2387 36.9858 9.88073C37.1733 9.51709 37.4261 9.23584 37.7443 9.03698C38.0682 8.83243 38.4318 8.73016 38.8352 8.73016C39.4318 8.73016 39.9119 8.9205 40.2756 9.30118C40.6449 9.68186 40.8295 10.1932 40.8295 10.8353V19H44.3494V11.0057C44.3494 10.3239 44.5341 9.77561 44.9034 9.36084C45.2727 8.94039 45.7869 8.73016 46.446 8.73016C47.0256 8.73016 47.5085 8.91198 47.8949 9.27561C48.2812 9.63925 48.4744 10.1847 48.4744 10.912V19H52.0966V10.1961C52.0966 8.77561 51.7131 7.67902 50.946 6.9063C50.1847 6.12789 49.1932 5.73868 47.9716 5.73868C47.0114 5.73868 46.179 5.96595 45.4744 6.4205C44.7756 6.86936 44.2926 7.4688 44.0256 8.2188H43.8892C43.679 7.45743 43.2585 6.85516 42.6278 6.41198C41.9972 5.96311 41.233 5.73868 40.3352 5.73868C39.4489 5.73868 38.6875 5.96027 38.0511 6.40345C37.4148 6.84664 36.9602 7.45175 36.6875 8.2188H36.5341V5.90914H33.0739ZM57.4531 18.4375C58.4247 18.983 59.5838 19.2557 60.9304 19.2557C62.0099 19.2557 62.9616 19.091 63.7855 18.7614C64.6151 18.4262 65.2912 17.9603 65.8139 17.3637C66.3423 16.7614 66.6918 16.0569 66.8622 15.25L63.5043 15.0285C63.3793 15.358 63.1974 15.6364 62.9588 15.8637C62.7202 16.091 62.4332 16.2614 62.098 16.375C61.7628 16.4887 61.3935 16.5455 60.9901 16.5455C60.3821 16.5455 59.8565 16.4177 59.4134 16.162C58.9702 15.9063 58.6264 15.5427 58.3821 15.0711C58.1435 14.5995 58.0241 14.0398 58.0241 13.3921V13.3836H66.9389V12.3864C66.9389 11.2728 66.7827 10.3012 66.4702 9.47164C66.1577 8.63641 65.7202 7.94323 65.1577 7.39209C64.6009 6.84095 63.9474 6.42902 63.1974 6.1563C62.4531 5.87789 61.6491 5.73868 60.7855 5.73868C59.5014 5.73868 58.3821 6.02277 57.4276 6.59095C56.4787 7.15914 55.7429 7.95175 55.2202 8.9688C54.6974 9.98584 54.4361 11.1677 54.4361 12.5142C54.4361 13.8949 54.6974 15.091 55.2202 16.1023C55.7429 17.108 56.4872 17.8864 57.4531 18.4375ZM58.0276 11.1336C58.0495 10.6635 58.1705 10.2345 58.3906 9.84664C58.6293 9.4205 58.9588 9.08243 59.3793 8.83243C59.8054 8.57675 60.294 8.44891 60.8452 8.44891C61.3736 8.44891 61.8366 8.56539 62.2344 8.79834C62.6378 9.02561 62.9531 9.34095 63.1804 9.74436C63.4077 10.1478 63.5213 10.6108 63.5213 11.1336H58.0276Z" fill="white"/>
</svg>
